<?xml version="1.0" encoding="UTF-8"?><svg id="Calque_2" xmlns="http://www.w3.org/2000/svg" viewBox="0 0 13.9 35.53"><g id="Calque_2-2"><path d="M5.85,33.54C5.27,36.18,0,36.22,0,33.54v-5.79c0-1.34,1.66-1.34,1.66,0v3.15c0,1.03,1.95,1.03,1.95,0l.11-2.7c.08-1.94-.09-3.87-.49-5.77L1,11.93c-.47-2.21-.71-4.47-.71-6.73V2.7C.37,.97,1.2-.09,3.32,0c2.18,.13,2.79,1.49,2.87,3.9,0,.38,0,2.24,0,2.57-.02,1.35-1.43,1.38-1.41,.03,0-.35,0-2.07,0-2.5-.12-.96-1.8-.89-1.68,.07v2.95c0,1.59,.19,3.16,.56,4.7,.75,3.11,1.53,7.35,2.33,11.84,.14,.77,.22,1.54,.23,2.32,.05,2.74-.02,5.32-.37,7.66Z"/><path d="M11.81,4.85c0,1.53,1.45,1.53,1.45,0v-1.99c0-3.67-6.03-3.67-6.03,0v30.11c.09,1.97,.85,2.37,2.07,2.4,1.31,.09,2.08,.02,3.11-.51,0,0,1.39,.41,1.47,.26s-.32-1.35-.32-1.35c-.2-.58-.31-1.21-.31-1.84V14.03c.05-.44,.29-.75,.57-1.15h-3.22c.32,.37,.48,.78,.48,1.34V31.38c0,1.22-1.55,1.22-1.55,0V4.89c-.02-1.73,2.24-1.77,2.26-.04Z"/></g></svg>